<svg width="26" height="23" viewBox="0 0 26 23" fill="none" xmlns="http://www.w3.org/2000/svg">
<path d="M3 3.04167V19.9583H23V3.04167H3ZM1.75 0.625H24.25C24.5815 0.625 24.8995 0.752306 25.1339 0.978913C25.3683 1.20552 25.5 1.51286 25.5 1.83333V21.1667C25.5 21.4871 25.3683 21.7945 25.1339 22.0211C24.8995 22.2477 24.5815 22.375 24.25 22.375H1.75C1.41848 22.375 1.10054 22.2477 0.866116 22.0211C0.631696 21.7945 0.5 21.4871 0.5 21.1667V1.83333C0.5 1.51286 0.631696 1.20552 0.866116 0.978913C1.10054 0.752306 1.41848 0.625 1.75 0.625V0.625ZM5.5 5.45833H8V7.875H5.5V5.45833ZM5.5 10.2917H8V12.7083H5.5V10.2917ZM5.5 15.125H20.5V17.5417H5.5V15.125ZM11.75 10.2917H14.25V12.7083H11.75V10.2917ZM11.75 5.45833H14.25V7.875H11.75V5.45833ZM18 5.45833H20.5V7.875H18V5.45833ZM18 10.2917H20.5V12.7083H18V10.2917Z" fill="#372329"/>
</svg>
